# xmcd CD database file
#
# Track frame offsets:
#	150
#	17475
#	40322
#	60947
#	81578
#
# Disc length: 1480 seconds
#
# Revision: 0
# Processed by: cddbd v1.5.1PL2 Copyright (c) Steve Scherf et al.
# Submitted via: CDex 1.51
#
DISCID=3405c605
DTITLE=aya - MAWARU MAWARU
DYEAR=2005
DGENRE=JPop
TTITLE0=MAWARU MAWARU
TTITLE1=カプセル
TTITLE2=負けない
TTITLE3=手をつなごう
TTITLE4=True love 〜今のきもち〜
EXTD=YEAR: 2005
EXTT0=
EXTT1=
EXTT2=
EXTT3=
EXTT4=
PLAYORDER=
